<svg width="115" height="23" viewBox="0 0 115 23" fill="none" xmlns="http://www.w3.org/2000/svg">
<g clip-path="url(#clip0_1_132)">
<path d="M8.20178 0.0193901L12.6226 12.3318L13.5049 9.67543L11.4399 0.727112C11.3235 0.31993 10.9066 0.0290849 10.4413 0.0290849H8.21148L8.20178 0.0193901Z" fill="white"/>
<path d="M14.4356 0.0290852C13.8539 0.0290852 13.4758 0.698028 13.534 1.22155C13.7666 3.29624 14.2126 7.77525 14.2126 7.77525L17.0726 0.0290852H14.4356Z" fill="white"/>
<path d="M25.3423 0.0290852L15.502 22.6956H9.9275L0 0.0290852H6.50523L12.6324 16.9659L18.2457 1.72568C18.585 0.591385 19.5157 0.0290852 21.1153 0.0290852H25.3423Z" fill="white"/>
<path d="M29.4045 18.0615L30.8102 14.232H36.249L32.6716 4.59535L29.133 14.232L26.0113 22.6956H20.3495L28.9876 1.52209C29.3657 0.523521 30.2091 0.0193901 31.4985 0.0193901H35.7546L45.0325 22.6859H39.4386L37.7323 18.0518H29.4045V18.0615Z" fill="white"/>
<path d="M55.7162 22.6956C48.5808 22.6956 45.0325 18.2263 45.0325 11.372C45.0325 4.51779 48.7941 0.00969505 56.1233 0.00969505C58.9542 0.00969505 61.2422 0.659248 62.9873 2.01652C64.6257 3.41258 65.5467 5.31276 65.7891 7.71708H62.9194C61.8918 7.71708 61.1453 7.26142 60.6993 6.38889C59.914 4.79894 58.3822 3.99427 56.1233 3.99427C51.7219 3.99427 49.7732 6.94149 49.7732 11.372C49.7732 15.8026 51.654 18.7207 55.9876 18.7207C58.9542 18.7207 60.6605 17.1695 61.1744 14.7361H65.7794C65.3334 19.8162 61.5815 22.6956 55.7162 22.6956Z" fill="white"/>
<path d="M68.1061 11.3526C68.1061 4.62443 72.3039 0 79.197 0C86.09 0 90.3169 4.69229 90.3169 11.3526C90.3169 18.013 86.2548 22.6762 79.197 22.6762C72.1391 22.6762 68.1061 18.0808 68.1061 11.3526ZM72.8565 11.3526C72.8565 15.6571 74.8731 18.8855 79.2066 18.8855C83.5402 18.8855 85.5858 15.7832 85.5858 11.3526C85.5858 6.9221 83.5402 3.91671 79.2066 3.91671C74.8731 3.91671 72.8565 7.08692 72.8565 11.3526Z" fill="white"/>
<path d="M97.6269 18.0808L95.9206 22.715H90.3267L99.6046 0.0484734H103.861C105.15 0.0484734 105.993 0.552604 106.372 1.55117L115 22.715H109.338L106.216 14.2514L102.678 4.61474L99.1005 14.2514H104.539L105.945 18.0808H97.6172H97.6269Z" fill="white"/>
</g>
<defs>
<clipPath id="clip0_1_132">
<rect width="115" height="22.715" fill="white"/>
</clipPath>
</defs>
</svg>