<svg xmlns="http://www.w3.org/2000/svg" xmlns:xlink="http://www.w3.org/1999/xlink" width="135.92" height="45.099" viewBox="0 0 135.92 45.099"><defs><linearGradient id="a" x1="0.037" y1="0.512" x2="0.966" y2="0.496" gradientUnits="objectBoundingBox"><stop offset="0.029" stop-color="#faf98f"/><stop offset="0.087" stop-color="#f7df78"/><stop offset="0.149" stop-color="#f5cd68"/><stop offset="0.213" stop-color="#f4c15e"/><stop offset="0.281" stop-color="#f4be5b"/><stop offset="0.669" stop-color="#fd7b39"/><stop offset="0.888" stop-color="#fc5730"/><stop offset="1" stop-color="#fb272c"/></linearGradient><linearGradient id="b" x1="0.963" y1="0.505" x2="0.035" y2="0.499" gradientUnits="objectBoundingBox"><stop offset="0" stop-color="#fbf993"/><stop offset="0.017" stop-color="#faf18a"/><stop offset="0.08" stop-color="#f6dc70"/><stop offset="0.144" stop-color="#f4cc5d"/><stop offset="0.21" stop-color="#f3c351"/><stop offset="0.281" stop-color="#f3c04e"/><stop offset="0.61" stop-color="#fd943b"/><stop offset="0.891" stop-color="#e6552e"/><stop offset="1" stop-color="#f3241b"/></linearGradient></defs><g transform="translate(-2044.296 -80.721)"><path d="M2244.99,144.851H2242.2l-10.047-22.77,3.795.022,7.656,17.286,7.678-17.308h3.773Q2254.071,124.406,2244.99,144.851Z" transform="translate(-121.02 -26.644)" fill="#fff"/><path d="M2326.62,141.692a10.946,10.946,0,0,1-2.917,2.084,9.824,9.824,0,0,1-4.256,1.031h-.812a9.916,9.916,0,0,1-4.256-1.02,10.762,10.762,0,0,1-3.4-2.622,12.4,12.4,0,0,1-3.049-7.81V122.1h3.554v10.815a9.282,9.282,0,0,0,2.259,6.362,7.5,7.5,0,0,0,2.3,1.788,6.087,6.087,0,0,0,2.72.625h.549a6.089,6.089,0,0,0,2.72-.625,7.508,7.508,0,0,0,2.3-1.788,9.283,9.283,0,0,0,2.259-6.362l.022-10.837h3.553v21.3a9.17,9.17,0,0,1-2.873,5.791,12.308,12.308,0,0,1-4.5,2.654,13.639,13.639,0,0,1-4.124.637q-.592,0-1.228-.044a12.88,12.88,0,0,1-4-1.119,11.4,11.4,0,0,1-3.224-2.223,29.582,29.582,0,0,1,2.446-2.3,7.758,7.758,0,0,0,5.155,2.5q.461.043.922.044a8.6,8.6,0,0,0,2.852-.483,7.744,7.744,0,0,0,3.115-1.821,5.978,5.978,0,0,0,1.908-3.795Z" transform="translate(-169.832 -26.644)" fill="#fff"/><path d="M2387.813,142.949a8.83,8.83,0,0,1-4.739-1.36,7.979,7.979,0,0,1-2.193-2.106,6.324,6.324,0,0,1-1.031-2.852l-.153-1.536,3.553-.285q.067.79.132,1.579a3.094,3.094,0,0,0,.527,1.48,4.247,4.247,0,0,0,1.228,1.2,5.135,5.135,0,0,0,2.742.768l.439-.022a4.874,4.874,0,0,0,3.729-2.259,3.818,3.818,0,0,0,.68-2.128,2.842,2.842,0,0,0-.417-1.514,3.962,3.962,0,0,0-1.558-1.525,10.081,10.081,0,0,0-3.115-1.042,10.848,10.848,0,0,1-3.926-1.557,6.273,6.273,0,0,1-2.161-2.314,5.462,5.462,0,0,1-.625-2.424,5.343,5.343,0,0,1,.965-3.005,6.207,6.207,0,0,1,2.237-2.04,7.417,7.417,0,0,1,3.642-.943,8.944,8.944,0,0,1,4.848,1.36l1.272.767-1.711,2.764-1.645-1.009a4.713,4.713,0,0,0-2.676-.746,3.186,3.186,0,0,0-2.918,1.382,2.556,2.556,0,0,0-.438,1.272v.219a2.762,2.762,0,0,0,1.469,2.369,7.165,7.165,0,0,0,2.413.833,13.4,13.4,0,0,1,4.541,1.711q3.356,2.128,3.356,5.419l-.022.526a7.359,7.359,0,0,1-1.163,3.181,8.23,8.23,0,0,1-2.7,2.545A8.525,8.525,0,0,1,2387.813,142.949Z" transform="translate(-216.064 -24.698)" fill="#fff"/><g transform="translate(2044.296 80.721)"><path d="M2062.719,80.721A18.621,18.621,0,0,0,2044.3,99.565V117.2a1.469,1.469,0,0,0,1.469,1.469h4.987V99.529c0-6.281,5.87-12.333,11.967-12.333s12.014,6.052,12.014,12.333v19.136h4.982a1.473,1.473,0,0,0,1.474-1.474V99.565A18.66,18.66,0,0,0,2062.719,80.721Z" transform="translate(-2044.296 -80.721)" fill="url(#a)"/><path d="M2070.653,92.5a14.2,14.2,0,0,0-14.051,14.372v19.383h3.455a1.469,1.469,0,0,0,1.469-1.469V106.84c.152-4.916,4.476-9.406,9.127-9.406s9.163,4.616,9.163,9.406v17.937a1.474,1.474,0,0,0,1.474,1.474h3.45V106.868A14.231,14.231,0,0,0,2070.653,92.5Z" transform="translate(-2052.224 -88.306)" fill="url(#b)"/></g><path d="M2174.137,120.712a11.876,11.876,0,0,0,0,23.749,11.377,11.377,0,0,0,4.817-1.046c-.023.017,0-4.107,0-4.107a7.377,7.377,0,0,1-4.817,1.643,8.365,8.365,0,1,1,8.233-8.364l.019,11.875h3.436V132.587A11.782,11.782,0,0,0,2174.137,120.712Z" transform="translate(-76.114 -25.762)" fill="#fff"/></g></svg>